<?xml version="1.0" encoding="utf-8"?>
<svg width="350px" height="350px" viewBox="0 0 328.248 248" version="1.1" xmlns="http://www.w3.org/2000/svg" xmlns:bx="https://boxy-svg.com">
  <defs>
    <bx:grid x="7.248" y="60.305" width="335.094" height="257.581"/>
  </defs>
  <title>Dual Book</title>
  <g id="Dual-Book" stroke="none" stroke-width="1" fill="none" fill-rule="evenodd" transform="matrix(1, 0, 0, 1, -6.752, -66)">
    <path d="M254.75,66 C271.821364,66 289.622273,68.1882353 305.818182,73.2941176 C316.761364,76.9411765 326.245455,81.3176471 335,87.8823529 L335,87.8823529 L335,300.870588 C335,304.517647 331.352273,308.164706 327.704545,308.164706 C326.245455,308.164706 325.515909,308.164706 324.056818,307.435294 C303.629545,296.494118 278.825,292.117647 254.75,292.117647 C229.945455,292.117647 194.197727,301.6 174.5,314 C153.343182,297.952941 122.702273,292.117647 94.25,292.117647 C73.0931818,292.117647 44.6409091,298.682353 24.9431818,308.164706 C23.4840909,308.164706 22.7545455,308.894118 21.2954545,308.894118 C17.6477273,308.894118 14,305.247059 14,301.6 L14,301.6 L14,87.8823529 C35.1568182,71.8352941 65.7977273,66 94.25,66 C122.702273,66 153.343182,71.8352941 174.5,87.8823529 C195.656818,71.8352941 226.297727,66 254.75,66 Z M254.75,95.1764706 C229.945455,95.1764706 194.197727,104.658824 174.5,117.058824 L174.5,117.058824 L174.5,284.823529 C194.197727,272.423529 229.945455,262.941176 254.75,262.941176 C272.259091,262.941176 289.768182,265.129412 305.818182,270.235294 L305.818182,270.235294 L305.818182,102.470588 C289.768182,97.3647059 272.259091,95.1764706 254.75,95.1764706 Z M98.5215567,111.692708 C75.7640336,111.692708 57.9373071,119.175106 45.0413773,134.139902 C32.1454475,149.104697 25.6974826,166.207321 25.6974826,185.447772 C25.6974826,204.964072 32.2144097,221.825328 45.2482639,236.031539 C58.2821181,250.237751 75.6605903,257.340856 97.3836806,257.340856 C116.486208,257.340856 131.864776,251.47907 143.519387,239.755498 C146.042892,243.009491 147.958887,247.286661 149.267371,252.587006 L149.415654,253.203125 L160.897859,253.203125 L160.897859,200.550492 L149.415654,200.550492 C145.898582,215.101514 140.140239,225.928578 132.140625,233.031684 C124.141011,240.13479 115.038002,243.686343 104.831597,243.686343 C97.1078318,243.686343 89.9874855,241.445071 83.4705584,236.962529 C76.9536314,232.479986 72.5917728,226.083743 70.3849826,217.773799 C68.1781925,209.463855 67.0747975,198.205777 67.0747975,183.999566 C67.0747975,163.793644 70.143615,148.932292 76.28125,139.415509 C82.418885,129.898727 91.5563754,125.140336 103.693721,125.140336 C114.244936,125.140336 123.365186,128.74361 131.05447,135.950159 C138.60395,143.02568 144.076014,153.408445 147.470664,167.098455 L147.657118,167.862413 L159.03588,167.862413 L157.587674,116.037326 L146.208912,116.037326 C144.89863,120.86468 143.450424,125.036892 141.864294,128.553964 C130.002797,117.313127 115.555218,111.692708 98.5215567,111.692708 Z M235.377315,111.692708 C247.307774,111.692708 257.445216,115.692515 265.789641,123.69213 C267.168885,121.623264 268.306761,118.451003 269.20327,114.175347 L269.20327,114.175347 L281.099248,114.175347 L281.099248,155.552662 L269.5136,155.552662 L269.354943,154.867803 C267.247028,146.004135 263.369068,138.681062 257.721065,132.898582 C251.928241,126.967834 245.411314,124.002459 238.170284,124.002459 C232.72227,124.002459 228.394893,125.519628 225.188151,128.553964 C221.981409,131.588301 220.378038,135.381221 220.378038,139.932726 C220.378038,143.449797 221.412471,146.708261 223.481337,149.708116 C225.550203,152.707972 228.343171,155.190611 231.860243,157.156033 C235.377315,159.121455 242.825231,162.759211 254.203993,168.0693 C264.410397,172.896653 271.961757,177.20679 276.858073,180.999711 C281.754389,184.792631 285.633512,189.568263 288.495443,195.326606 C291.357374,201.084949 292.788339,207.308787 292.788339,213.998119 C292.788339,226.411314 288.202353,236.738402 279.030382,244.979384 C269.85841,253.220366 258.927903,257.340856 246.23886,257.340856 C238.99783,257.340856 231.911965,255.823688 224.981264,252.789352 C218.050564,249.755015 212.516348,245.720727 208.378617,240.686487 C206.792486,243.789786 205.620129,247.582706 204.861545,252.065249 L204.861545,252.065249 L192.448351,252.065249 L192.448351,204.067564 L204.861545,204.067564 L205.041433,204.805842 C208.488518,218.763614 213.600719,228.758406 220.378038,234.79022 C227.274257,240.927855 234.722174,243.996672 242.721788,243.996672 C248.652537,243.996672 253.376447,242.238137 256.893519,238.721065 C260.41059,235.203993 262.169126,231.066262 262.169126,226.30787 C262.169126,222.928723 261.065731,219.549576 258.858941,216.170428 C256.652151,212.791281 251.411024,209.032841 243.135561,204.89511 C227.205295,196.964458 216.447193,191.154393 210.861256,187.464916 C205.275318,183.775439 200.792776,179.034288 197.413628,173.241464 C194.034481,167.44864 192.344907,160.793789 192.344907,153.27691 C192.344907,141.208526 196.672285,131.26073 205.32704,123.433521 C213.981795,115.606313 223.998553,111.692708 235.377315,111.692708 Z" id="Combined-Shape" fill="#000000" fill-rule="nonzero"/>
  </g>
</svg>